#!OML:ASF I:\golf\golf\golf 2\Subject 1\2002-09-07\Subject1.ASF
:FULLY-SPECIFIED
:DEGREES
387
root -6.72888 17.7233 -0.385108 -171.016 17.7204 -178.961
lowerback -0.567432 12.265 18.2886
upperback -9.53684 21.1873 7.4864
thorax -7.53384 10.6225 -2.24922
lowerneck -7.95442 -20.3629 -0.494014
upperneck 10.8089 -29.3017 3.49103
head 5.13095 -14.4477 -0.955243
rclavicle -6.36111e-014 -5.08889e-014
rhumerus 95.3755 38.8414 -53.2182
rradius 40.942
rwrist 5.32763
rhand -17.5294 18.4583
rfingers 7.12502
rthumb 8.72451 -11.3414
lclavicle -6.36111e-014 -5.08889e-014
lhumerus 48.9866 6.41268 76.6607
lradius 58.2242
lwrist 46.2294
lhand -26.1143 17.2205
lfingers 7.12502
lthumb -179.565 587.2
rfemur 13.0309 -7.81241 13.0197
rtibia 19.311
rfoot -15.4606 -38.473
rtoes 27.6776
lfemur -28.8022 -14.5726 -18.8515
ltibia 30.7612
lfoot 7.72796 -40.5701
ltoes 34.9968
388
root -6.70763 17.7271 -0.468967 -170.569 16.2209 -178.901
lowerback -1.01613 12.3917 18.2497
upperback -10.1388 21.4152 6.91565
thorax -7.74997 10.7156 -2.74739
lowerneck -8.01732 -20.3809 -0.517444
upperneck 10.3163 -29.1623 3.581
head 4.99803 -14.3702 -0.889297
rclavicle 1.51076e-013 1.65389e-013
rhumerus 97.8429 37.7351 -52.3691
rradius 41.6389
rwrist 5.44143
rhand -18.2026 18.5732
rfingers 7.12502
rthumb 8.07479 -11.2526
lclavicle 1.51076e-013 1.65389e-013
lhumerus 51.038 7.63138 75.8627
lradius 58.9708
lwrist 45.1326
lhand -26.2993 16.2416
lfingers 7.12502
lthumb -179.743 586.221
rfemur 13.8307 -8.38424 13.5579
rtibia 17.7822
rfoot -15.7262 -39.3626
rtoes 28.8961
lfemur -29.2908 -15.0381 -18.7395
ltibia 31.082
lfoot 9.43621 -41.211
ltoes 36.9413
389
root -6.68949 17.7307 -0.54985 -170.125 14.7494 -178.701
lowerback -1.5022 12.5143 18.3118
upperback -10.6454 21.6429 6.45404
thorax -7.85481 10.8275 -3.15238
lowerneck -7.27839 -20.4213 -0.913675
upperneck 8.65829 -29.0277 4.54
head 4.55711 -14.3054 -0.414891
rclavicle 4.45278e-014 -1.27222e-014
rhumerus 99.8936 36.8426 -51.823
rradius 42.6463
rwrist 5.91806
rhand -19.2931 19.341
rfingers 7.12502
rthumb 7.02222 -10.5225
lclavicle 4.45278e-014 -1.27222e-014
lhumerus 53.2862 9.42567 75.9438
lradius 60.2669
lwrist 45.9394
lhand -24.2804 17.5855
lfingers 7.12502
lthumb -177.793 587.554
rfemur 14.6532 -9.01248 14.2097
rtibia 16.196
rfoot -16.4992 -40.0591
rtoes 31.6079
lfemur -29.7347 -15.4597 -18.4737
ltibia 31.3802
lfoot 10.9011 -41.8153
ltoes 38.8051
390
root -6.67513 17.7317 -0.629647 -169.654 13.3191 -178.466
lowerback -1.99796 12.6343 18.389
upperback -11.1815 21.9048 6.01222
thorax -7.99403 10.9617 -3.54595
lowerneck -6.85618 -20.4228 -1.43716
upperneck 7.29992 -28.8745 5.21261
head 4.68111 -14.2398 -0.0555601
rclavicle 1.27222e-013 2.22639e-014
rhumerus 101.421 36.2623 -51.6222
rradius 43.94
rwrist 6.64498
rhand -20.5114 19.9446
rfingers 7.12502
rthumb 5.84606 -9.95479
lclavicle 1.27222e-013 2.22639e-014
lhumerus 54.9158 10.1446 74.731
lradius 60.8487
lwrist 43.3881
lhand -25.4566 15.09
lfingers 7.12502
lthumb -178.929 585.067
rfemur 15.4181 -9.63261 14.8842
rtibia 14.5703
rfoot -16.314 -40.9159
rtoes 33.4087
lfemur -30.2354 -15.8577 -18.1605
ltibia 31.6568
lfoot 12.3067 -42.4583
ltoes 40.2997
391
root -6.66356 17.7376 -0.710338 -169.081 11.9727 -178.16
lowerback -2.55055 12.7259 18.5119
upperback -11.781 22.1572 5.55676
thorax -8.16625 11.0931 -3.96836
lowerneck -6.77264 -20.3728 -1.54453
upperneck 6.87367 -28.6881 5.31293
head 4.53568 -14.1503 0.0398988
rclavicle 6.52014e-014 6.99722e-014
rhumerus 102.605 35.8386 -51.7495
rradius 45.4156
rwrist 7.33193
rhand -21.5684 20.3118
rfingers 7.12502
rthumb 4.82552 -9.61328
lclavicle 6.52014e-014 6.99722e-014
lhumerus 56.5776 11.305 73.987
lradius 61.8301
lwrist 42.7493
lhand -24.7658 14.3876
lfingers 7.12502
lthumb -178.262 584.36
rfemur 16.0472 -10.1513 15.6347
rtibia 12.9062
rfoot -14.1242 -42.2116
rtoes 32.8152
lfemur -30.8291 -16.2474 -17.72
ltibia 31.8989
lfoot 13.7408 -42.9454
ltoes 41.2225
392
root -6.64536 17.7477 -0.787486 -168.593 10.7671 -177.734
lowerback -3.00645 12.8261 18.6051
upperback -12.2799 22.427 5.19491
thorax -8.31728 11.2408 -4.29645
lowerneck -6.48899 -20.3902 -1.6676
upperneck 6.04485 -28.5781 5.60095
head 4.24528 -14.1045 0.233435
rclavicle 1.1291e-013 1.87653e-013
rhumerus 103.625 35.3331 -51.8658
rradius 47.0116
rwrist 8.0815
rhand -22.7186 21.0462
rfingers 7.12502
rthumb 3.71484 -8.90119
lclavicle 1.1291e-013 1.87653e-013
lhumerus 58.3209 12.5609 73.5253
lradius 62.9432
lwrist 43.0797
lhand -23.8325 13.945
lfingers 7.12502
lthumb -177.361 583.908
rfemur 16.7502 -10.3599 16.5659
rtibia 11.2054
rfoot -12.433 -43.4679
rtoes 32.9506
lfemur -31.2357 -16.5337 -17.1318
ltibia 32.0871
lfoot 14.6642 -43.4513
ltoes 41.5284
393
root -6.62407 17.7561 -0.863475 -168.221 9.70344 -177.367
lowerback -3.46945 12.9403 18.5446
upperback -12.6563 22.656 4.88816
thorax -8.38238 11.3853 -4.48348
lowerneck -6.39713 -20.3961 -1.80309
upperneck 5.35755 -28.4755 5.88985
head 4.04658 -14.0536 0.391696
rclavicle -7.39479e-014 -2.70347e-014
rhumerus 104.539 34.8448 -51.9196
rradius 48.7015
rwrist 8.93714
rhand -24.0218 21.9947
rfingers 7.12502
rthumb 2.45632 -7.97087
lclavicle -7.39479e-014 -2.70347e-014
lhumerus 59.8235 13.65 72.764
lradius 64.3276
lwrist 42.728
lhand -23.7642 13.7471
lfingers 7.12502
lthumb -177.295 583.71
rfemur 17.572 -10.7023 17.2942
rtibia 9.45694
rfoot -11.0282 -44.4201
rtoes 34.1629
lfemur -31.4704 -16.7641 -16.6339
ltibia 32.2153
lfoot 15.5541 -43.9048
ltoes 42.0993
394
root -6.61038 17.7603 -0.938945 -168.027 8.58113 -177.196
lowerback -3.94841 12.9753 18.411
upperback -12.9814 22.7278 4.56753
thorax -8.40905 11.4522 -4.65357
lowerneck -6.34319 -20.38 -1.81683
upperneck 4.93577 -28.3742 5.98763
head 3.89926 -14.0063 0.464584
rclavicle 1.25632e-013 -4.6118e-014
rhumerus 105.429 34.4663 -52.0251
rradius 50.3523
rwrist 9.74055
rhand -25.385 22.687
rfingers 7.12502
rthumb 1.13968 -7.28971
lclavicle 1.25632e-013 -4.6118e-014
lhumerus 61.1236 14.9321 72.052
lradius 65.9138
lwrist 43.4982
lhand -23.1961 13.8364
lfingers 7.12502
lthumb -176.746 583.791
rfemur 18.5374 -11.0972 17.7306
rtibia 7.7505
rfoot -9.19873 -45.3951
rtoes 35.658
lfemur -31.563 -17.205 -16.3692
ltibia 32.2808
lfoot 17.1335 -43.9748
ltoes 43.4034
395
root -6.60363 17.761 -1.0089 -168.048 7.43404 -177.34
lowerback -4.18865 12.945 18.1091
upperback -13.2791 22.6994 4.1711
thorax -8.5499 11.443 -4.90633
lowerneck -6.51131 -20.3694 -1.86623
upperneck 4.89142 -28.3006 5.91861
head 3.90556 -13.9645 0.440566
rclavicle -3.81667e-014 1.59028e-015
rhumerus 106.384 34.0491 -52.1366
rradius 51.7982
rwrist 10.5058
rhand -26.7572 23.3011
rfingers 7.12502
rthumb -0.185614 -6.67861
lclavicle -3.81667e-014 1.59028e-015
lhumerus 62.1735 15.9961 70.9458
lradius 67.2497
lwrist 43.0774
lhand -23.6794 13.4146
lfingers 7.12502
lthumb -177.213 583.376
rfemur 19.6563 -11.5482 17.7669
rtibia 6.12655
rfoot -7.89347 -46.0192
rtoes 37.1391
lfemur -31.4704 -17.8112 -16.4956
ltibia 32.2949
lfoot 18.9657 -43.7624
ltoes 44.8437
396
root -6.60029 17.764 -1.07536 -167.911 6.43517 -177.437
lowerback -4.48941 12.9495 17.8366
upperback -13.5728 22.7001 3.75614
thorax -8.63229 11.4538 -5.16235
lowerneck -6.65155 -20.3467 -1.90994
upperneck 4.80051 -28.2324 5.96965
head 3.91085 -13.9245 0.453333
rclavicle -4.21423e-014 -7.63333e-014
rhumerus 107.508 33.531 -52.081
rradius 53.1002
rwrist 11.3602
rhand -28.1104 23.5977
rfingers 7.12502
rthumb -1.49255 -6.3768
lclavicle -4.21423e-014 -7.63333e-014
lhumerus 63.2575 17.0785 69.9172
lradius 68.408
lwrist 42.4551
lhand -24.1967 12.8959
lfingers 7.12502
lthumb -177.713 582.863
rfemur 20.5638 -11.8411 17.835
rtibia 4.52444
rfoot -7.03713 -46.4538
rtoes 37.7083
lfemur -31.5348 -18.3317 -16.5454
ltibia 32.2956
lfoot 20.1032 -43.8414
ltoes 45.6425
397
root -6.59656 17.7692 -1.13999 -167.633 5.47561 -177.219
lowerback -5.06429 12.9443 17.6792
upperback -13.7054 22.6208 3.54815
thorax -8.44852 11.4706 -5.15817
lowerneck -7.24906 -20.3247 -2.02981
upperneck 4.98632 -28.1744 6.0094
head 4.10908 -13.867 0.394644
rclavicle -9.85972e-014 -6.67916e-014
rhumerus 109.014 32.8841 -51.5626
rradius 54.3494
rwrist 12.0981
rhand -29.3536 23.336
rfingers 7.12502
rthumb -2.69325 -6.62673
lclavicle -9.85972e-014 -6.67916e-014
lhumerus 64.367 18.2749 69.0177
lradius 69.4577
lwrist 41.3311
lhand -25.1349 12.1143
lfingers 7.12502
lthumb -178.619 582.09
rfemur 21.3007 -12.0373 18.2544
rtibia 2.99494
rfoot -4.66066 -47.1779
rtoes 37.912
lfemur -31.7459 -18.7715 -16.2014
ltibia 32.3128
lfoot 20.9289 -44.0904
ltoes 46.1004
398
root -6.59228 17.7758 -1.20285 -167.468 4.58135 -177.022
lowerback -5.6334 12.9243 17.4343
upperback -13.6304 22.4206 3.44921
thorax -8.09795 11.4392 -4.98174
lowerneck -8.52389 -20.3621 -2.18696
upperneck 5.4811 -28.1864 5.95349
head 4.53865 -13.8126 0.204411
rclavicle 9.70069e-014 5.56597e-014
rhumerus 110.743 32.115 -50.9278
rradius 55.4241
rwrist 12.5339
rhand -30.817 23.4332
rfingers 7.12502
rthumb -4.10644 -6.50696
lclavicle 9.70069e-014 5.56597e-014
lhumerus 65.7772 19.6696 68.7152
lradius 70.4891
lwrist 40.3102
lhand -25.6649 11.8295
lfingers 7.12502
lthumb -179.131 581.807
rfemur 22.3986 -12.1586 18.614
rtibia 0.97678
rfoot -0.488291 -47.974
rtoes 37.1261
lfemur -31.8282 -19.1391 -15.9387
ltibia 32.3591
lfoot 21.6342 -44.2749
ltoes 46.4685
399
root -6.59 17.7825 -1.2634 -167.366 3.80355 -176.883
lowerback -6.12337 12.8966 17.2242
upperback -13.5847 22.2293 3.32162
thorax -7.80316 11.3948 -4.87723
lowerneck -9.43885 -20.371 -2.17281
upperneck 6.04134 -28.1819 6.00431
head 4.42 -13.7555 0.0546373
rclavicle -7.79236e-014 -1.39944e-013
rhumerus 112.301 31.5462 -50.6394
rradius 56.2327
rwrist 12.9966
rhand -31.754 23.9026
rfingers 7.12502
rthumb -5.01119 -6.01819
lclavicle -7.79236e-014 -1.39944e-013
lhumerus 67.105 20.9827 68.5415
lradius 71.4232
lwrist 39.329
lhand -26.1041 11.7734
lfingers 7.12502
lthumb -179.555 581.753
rfemur 22.9885 -12.1739 18.8697
rtibia 6.36111e-014
rfoot 3.01665 -48.1192
rtoes 35.2865
lfemur -31.8234 -19.414 -15.7869
ltibia 32.4073
lfoot 21.8593 -44.698
ltoes 46.5371
